<svg width="400" height="400" viewBox="0 0 400 400" fill="none" xmlns="http://www.w3.org/2000/svg">
  <defs>
    <linearGradient id="strawberryBrainGradient" x1="0" y1="0" x2="400" y2="400" gradientUnits="userSpaceOnUse">
      <stop offset="0%" stop-color="#6366F1" />
      <stop offset="100%" stop-color="#8B5CF6" />
    </linearGradient>
  </defs>
  <!-- Strawberry half -->
  <path d="M80,340 Q50,220 110,120 Q160,60 200,120 Q210,250 200,340 Q150,360 80,340Z"
    fill="url(#strawberryBrainGradient)"
    />
  <!-- Strawberry seeds -->
  <ellipse cx="120" cy="180" rx="8" ry="12" fill="white"/>
  <ellipse cx="135" cy="220" rx="6" ry="10" fill="white"/>
  <ellipse cx="110" cy="250" rx="5" ry="8" fill="white"/>
  <ellipse cx="165" cy="200" rx="7" ry="11" fill="white"/>
  <ellipse cx="145" cy="290" rx="5" ry="9" fill="white"/>
  <!-- Strawberry leaves -->
  <path d="M125,110 Q105,85 135,75 Q125,50 168,90 Q184,58 205,120 Q215,62 249,105 Q237,102 215,133 Q175,99 155,125Z"
    fill="#17863C"/>
  <!-- Brain half -->
  <path d="M200,120 Q245,60 290,130 Q355,235 320,340 Q270,370 200,340 Q215,250 200,120Z"
    fill="url(#strawberryBrainGradient)"/>
  <!-- Brain squiggles (example, stylized) -->
  <path d="M230 185 Q250 170 260 210 Q245 190 275 230 Q265 220 278 265 Q260 245 270 295 Q255 260 225 290 Q240 225 220 230 Q235 250 255 256" 
        stroke="#fff2ae" stroke-width="7" fill="none"/>
</svg>
